<svg width="900" height="620" viewBox="0 0 900 620" fill="none" xmlns="http://www.w3.org/2000/svg">
  <rect width="900" height="620" rx="28" fill="#0F172A"/>
  <rect x="24" y="24" width="852" height="572" rx="22" fill="#111827"/>
  <rect x="56" y="64" width="220" height="14" rx="7" fill="#334155"/>
  <rect x="56" y="92" width="152" height="10" rx="5" fill="#1E293B"/>
  <rect x="56" y="134" width="246" height="154" rx="14" fill="#1E293B"/>
  <rect x="320" y="134" width="246" height="154" rx="14" fill="#1E293B"/>
  <rect x="584" y="134" width="260" height="154" rx="14" fill="#1E293B"/>
  <rect x="56" y="310" width="388" height="242" rx="14" fill="#1E293B"/>
  <rect x="462" y="310" width="382" height="242" rx="14" fill="#1E293B"/>
  <path d="M90 248C126 200 154 220 184 236C214 252 248 240 286 188" stroke="#38BDF8" stroke-width="6" stroke-linecap="round"/>
  <path d="M350 232C380 188 410 200 444 220C478 240 520 232 538 192" stroke="#22D3EE" stroke-width="6" stroke-linecap="round"/>
  <circle cx="286" cy="188" r="8" fill="#38BDF8"/>
  <circle cx="538" cy="192" r="8" fill="#22D3EE"/>
  <rect x="88" y="340" width="112" height="84" rx="12" fill="#0F172A"/>
  <rect x="214" y="340" width="112" height="84" rx="12" fill="#0F172A"/>
  <rect x="340" y="340" width="76" height="84" rx="12" fill="#0F172A"/>
  <rect x="488" y="342" width="330" height="20" rx="10" fill="#334155"/>
  <rect x="488" y="374" width="288" height="14" rx="7" fill="#1E293B"/>
  <rect x="488" y="406" width="248" height="14" rx="7" fill="#1E293B"/>
  <rect x="488" y="438" width="206" height="14" rx="7" fill="#1E293B"/>
  <rect x="488" y="470" width="176" height="14" rx="7" fill="#1E293B"/>
</svg>
