<svg width="820" height="520" viewBox="0 0 820 520" fill="none" xmlns="http://www.w3.org/2000/svg">
  <rect width="820" height="520" rx="28" fill="#020617"/>
  <rect x="38" y="40" width="744" height="440" rx="20" fill="#0F172A"/>
  <rect x="78" y="88" width="664" height="44" rx="12" fill="#1E293B"/>
  <rect x="78" y="152" width="318" height="286" rx="16" fill="#111827"/>
  <rect x="424" y="152" width="318" height="136" rx="16" fill="#111827"/>
  <rect x="424" y="302" width="318" height="136" rx="16" fill="#111827"/>
  <rect x="102" y="190" width="270" height="16" rx="8" fill="#334155"/>
  <rect x="102" y="220" width="236" height="12" rx="6" fill="#1E293B"/>
  <rect x="102" y="246" width="214" height="12" rx="6" fill="#1E293B"/>
  <rect x="102" y="272" width="182" height="12" rx="6" fill="#1E293B"/>
  <circle cx="490" cy="218" r="44" fill="#1D4ED8"/>
  <circle cx="560" cy="218" r="26" fill="#0EA5E9"/>
  <circle cx="630" cy="218" r="34" fill="#22D3EE"/>
  <rect x="452" y="338" width="242" height="18" rx="9" fill="#334155"/>
  <rect x="452" y="366" width="198" height="12" rx="6" fill="#1E293B"/>
  <rect x="452" y="390" width="170" height="12" rx="6" fill="#1E293B"/>
</svg>
